<?xml version="1.0" encoding="UTF-8"?>
<svg width="101px" height="18px" viewBox="0 0 101 18" version="1.1" xmlns="http://www.w3.org/2000/svg" xmlns:xlink="http://www.w3.org/1999/xlink">
    <!-- Generator: Sketch 52.5 (67469) - http://www.bohemiancoding.com/sketch -->
    <title>footerLogo</title>
    <desc>Created with Sketch.</desc>
    <g id="Page-1" stroke="none" stroke-width="1" fill="none" fill-rule="evenodd">
        <g id="footerLogo" fill="#05171D">
            <path d="M19.766756,4.78125 L22.7104088,4.78125 C24.4953997,4.78125 25.7238606,5.73273128 25.7238606,7.36080002 L25.7238606,7.38499841 C25.7238606,9.15632171 24.2524995,10.0729573 22.5605738,10.0729573 L20.368888,10.0729573 L20.368888,13.21875 L19.766756,13.21875 L19.766756,4.78125 Z M22.595008,9.49413145 C24.1017338,9.49413145 25.1217286,8.67428948 25.1217286,7.41984414 L25.1217286,7.39661367 C25.1217286,6.05795788 24.1259308,5.35910793 22.6638762,5.35910793 L20.368888,5.35910793 L20.368888,9.49413145 L22.595008,9.49413145 Z" id="Fill-1" fill-rule="nonzero"></path>
            <polygon id="Fill-3" points="27.619303 4.78125 33.5174451 4.78125 33.5174451 5.35910793 28.2355551 5.35910793 28.2355551 8.67428948 32.9839305 8.67428948 32.9839305 9.25214736 28.2355551 9.25214736 28.2355551 12.6389562 33.5764075 12.6389562 33.5764075 13.21875 27.619303 13.21875"></polygon>
            <g id="Group-10" transform="translate(35.201072, 4.500000)">
                <path d="M0.0572921824,0.2926125 L3.46742044,0.2926125 C4.46502966,0.2926125 5.2651663,0.6139125 5.75232744,1.11403125 C6.13516348,1.50609375 6.36710065,2.06645625 6.36710065,2.6622 L6.36710065,2.68610625 C6.36710065,4.0793625 5.35831373,4.876875 3.98904618,5.06716873 L6.66889838,8.62824373 L5.90322636,8.62824373 L3.31745304,5.175225 L0.660887679,5.175225 L0.660887679,8.62824373 L0.0572921824,8.62824373 L0.0572921824,0.2926125 Z M3.39755985,4.6148625 C4.75471825,4.6148625 5.76536812,3.912975 5.76536812,2.7100125 L5.76536812,2.68610625 C5.76536812,1.5663375 4.90561712,0.86349375 3.43295588,0.86349375 L0.660887679,0.86349375 L0.660887679,4.6148625 L3.39755985,4.6148625 Z" id="Fill-4" fill-rule="nonzero"></path>
                <path d="M7.92135907,7.41275436 L8.31630424,6.94897314 C9.20865687,7.79429814 10.0320803,8.18827314 11.2262307,8.18827314 C12.4445994,8.18827314 13.280132,7.48447314 13.280132,6.53300436 L13.280132,6.50909814 C13.280132,5.62743564 12.8283669,5.11488564 10.9831158,4.73429813 C9.0344711,4.32884813 8.24644367,3.64991063 8.24644367,2.38861688 L8.24644367,2.36375438 C8.24644367,1.12541063 9.34744657,0.172029375 10.8555038,0.172029375 C12.039408,0.172029375 12.8162577,0.507673123 13.6406127,1.18565437 L13.2568452,1.67429813 C12.4921046,0.995360627 11.725501,0.733348127 10.8331484,0.733348127 C9.63806663,0.733348127 8.8491077,1.43523563 8.8491077,2.30446688 L8.8491077,2.32932938 C8.8491077,3.21003563 9.28969513,3.74649188 11.215053,4.15098563 C13.0947686,4.54400438 13.8827961,5.23441686 13.8827961,6.44885436 L13.8827961,6.47276064 C13.8827961,7.81724814 12.7585063,8.74672314 11.1926976,8.74672314 C9.89329065,8.74672314 8.89568141,8.30589186 7.92135907,7.41275436" id="Fill-6"></path>
                <path d="M15.8662779,0.2926125 L18.8116004,0.2926125 C20.5991,0.2926125 21.8286464,1.23260625 21.8286464,2.84101875 L21.8286464,2.864925 C21.8286464,4.6148625 20.3550537,5.52043123 18.661633,5.52043123 L16.4698734,5.52043123 L16.4698734,8.62824373 L15.8662779,8.62824373 L15.8662779,0.2926125 Z M18.697029,4.94859373 C20.2050863,4.94859373 21.2250509,4.13865 21.2250509,2.89935 L21.2250509,2.8764 C21.2250509,1.55390625 20.2283732,0.86349375 18.7659581,0.86349375 L16.4698734,0.86349375 L16.4698734,4.94859373 L18.697029,4.94859373 Z" id="Fill-8" fill-rule="nonzero"></path>
            </g>
            <polygon id="Fill-11" points="59.0294906 4.78125 64.9276327 4.78125 64.9276327 5.35910793 59.645743 5.35910793 59.645743 8.67428948 64.3950691 8.67428948 64.3950691 9.25214736 59.645743 9.25214736 59.645743 12.6389562 64.986595 12.6389562 64.986595 13.21875 59.0294906 13.21875"></polygon>
            <path d="M66.3404824,8.88355075 L66.3404824,8.859375 C66.3404824,6.475644 68.069763,4.5 70.4282987,4.5 C71.8874962,4.5 72.7643273,5.05410868 73.6055229,5.84900801 L73.1732028,6.30641359 C72.4604841,5.59564593 71.6427335,5.06571305 70.4170453,5.06571305 C68.454256,5.06571305 66.970676,6.71643469 66.970676,8.83519925 L66.970676,8.859375 C66.970676,10.991678 68.4777006,12.6520699 70.4282987,12.6520699 C71.6080355,12.6520699 72.4135949,12.18306 73.2425992,11.3407761 L73.6514748,11.7488631 C72.7868345,12.6288612 71.8527978,13.21875 70.4048541,13.21875 C68.069763,13.21875 66.3404824,11.3040289 66.3404824,8.88355075" id="Fill-12"></path>
            <polygon id="Fill-14" points="77.548939 5.35910793 74.7345843 5.35910793 74.7345843 4.78125 80.9624666 4.78125 80.9624666 5.35910793 78.1490381 5.35910793 78.1490381 13.21875 77.548939 13.21875"></polygon>
            <polygon id="Fill-15" points="82.8579088 13.21875 83.383488 13.21875 83.383488 4.78125 82.8579088 4.78125"></polygon>
            <polygon id="Fill-16" points="85.2949063 4.78125 85.9579893 4.78125 89.0968272 12.4891917 92.2476205 4.78125 92.8766755 4.78125 89.3488167 13.21875 88.822765 13.21875"></polygon>
            <polygon id="Fill-17" points="96.6502767 4.78125 92.8766755 13.21875 93.5020472 13.21875 96.9271872 5.46363123 100.342105 13.21875 101 13.21875 97.2282574 4.78125"></polygon>
            <path d="M7.58083203,0 L0.00749927737,4.49493488 L0,13.4944525 L7.58083203,18 L15.1635389,13.4944525 L15.1635389,4.50168838 L7.58083203,0 Z M0.675872373,13.0931018 L0.682434243,4.89628558 L7.58083203,0.802701398 L14.4876665,4.90207429 L14.4876665,13.0931018 L7.58083203,17.1972986 L0.675872373,13.0931018 Z" id="Fill-18" fill-rule="nonzero"></path>
            <polygon id="Fill-19" points="7.87115468 4.78125 7.29331767 4.78125 3.52010724 13.21875 4.14555281 13.21875 7.56963392 5.46184928 10.98438 13.21875 11.6434316 13.21875"></polygon>
        </g>
    </g>
</svg>