<?xml version="1.0" encoding="UTF-8"?>
<svg width="224px" height="38px" viewBox="0 0 224 38" version="1.1" xmlns="http://www.w3.org/2000/svg" xmlns:xlink="http://www.w3.org/1999/xlink">
    <!-- Generator: Sketch 52.4 (67378) - http://www.bohemiancoding.com/sketch -->
    <title>footerLogo</title>
    <desc>Created with Sketch.</desc>
    <g id="Symbols" stroke="none" stroke-width="1" fill="none" fill-rule="evenodd">
        <g id="footer" transform="translate(-165.000000, -66.000000)" fill="#05171D">
            <g id="footerLogo" transform="translate(165.000000, 66.000000)">
                <path d="M43.8391421,10.09375 L50.3676394,10.09375 C54.3264311,10.09375 57.0509383,12.1024327 57.0509383,15.5394667 L57.0509383,15.5905522 C57.0509383,19.3300125 53.7877217,21.2651321 50.0353321,21.2651321 L45.1745635,21.2651321 L45.1745635,27.90625 L43.8391421,27.90625 L43.8391421,10.09375 Z M50.1117009,20.0431664 C53.4533503,20.0431664 55.715517,18.3123889 55.715517,15.6641154 L55.715517,15.6150733 C55.715517,12.7890222 53.5070149,11.3136723 50.2644384,11.3136723 L45.1745635,11.3136723 L45.1745635,20.0431664 L50.1117009,20.0431664 Z" id="Fill-1"></path>
                <polygon id="Fill-3" points="61.2546917 10.09375 74.3357198 10.09375 74.3357198 11.3136723 62.6214292 11.3136723 62.6214292 18.3123889 73.1524795 18.3123889 73.1524795 19.5323111 62.6214292 19.5323111 62.6214292 26.6822409 74.4664879 26.6822409 74.4664879 27.90625 61.2546917 27.90625"></polygon>
                <g id="Group-10" transform="translate(78.069705, 9.500000)">
                    <path d="M0.12706385,0.6177375 L7.69012058,0.6177375 C9.90264004,0.6177375 11.6772005,1.2960375 12.7576371,2.35184375 C13.6066992,3.17953125 14.1210945,4.36251875 14.1210945,5.6202 L14.1210945,5.67066875 C14.1210945,8.6119875 11.8837849,10.295625 8.8469935,10.6973562 L14.7904281,18.2151812 L13.092304,18.2151812 L7.35751961,10.925475 L1.46573109,10.925475 L1.46573109,18.2151812 L0.12706385,18.2151812 L0.12706385,0.6177375 Z M7.53518224,9.7424875 C10.5451177,9.7424875 12.786559,8.260725 12.786559,5.7211375 L12.786559,5.67066875 C12.786559,3.3067125 10.8797845,1.82293125 7.61368433,1.82293125 L1.46573109,1.82293125 L1.46573109,9.7424875 L7.53518224,9.7424875 Z" id="Fill-4"></path>
                    <path d="M17.5681627,15.6491481 L18.4440807,14.6700544 C20.4231598,16.4546294 22.2493663,17.2863544 24.897779,17.2863544 C27.5999036,17.2863544 29.4529661,15.8005544 29.4529661,13.7918981 L29.4529661,13.7414294 C29.4529661,11.8801419 28.4510315,10.7980919 24.3585935,9.99462938 C20.0368468,9.13867938 18.2891424,7.70536688 18.2891424,5.04263563 L18.2891424,4.99014813 C18.2891424,2.37586688 20.7309706,0.363173125 24.0755728,0.363173125 C26.7012612,0.363173125 28.4241755,1.07175437 30.2524479,2.50304812 L29.40132,3.53462938 C27.7052616,2.10131688 26.0050716,1.54817938 24.0259926,1.54817938 C21.3755141,1.54817938 19.6257438,3.02994188 19.6257438,4.86498563 L19.6257438,4.91747313 C19.6257438,6.77674188 20.6028882,7.90926063 24.8729888,8.76319188 C29.041863,9.59289813 30.7895675,11.0504356 30.7895675,13.6142481 L30.7895675,13.6647169 C30.7895675,16.5030794 28.2960932,18.4653044 24.8234086,18.4653044 C21.9415555,18.4653044 19.729036,17.5346606 17.5681627,15.6491481" id="Fill-6"></path>
                    <path d="M35.1885768,0.6177375 L41.7207771,0.6177375 C45.6851327,0.6177375 48.4120474,2.60216875 48.4120474,5.99770625 L48.4120474,6.048175 C48.4120474,9.7424875 45.1438814,11.6542437 41.3881761,11.6542437 L36.527244,11.6542437 L36.527244,18.2151812 L35.1885768,18.2151812 L35.1885768,0.6177375 Z M41.4666782,10.4470312 C44.8112805,10.4470312 47.0733802,8.73715 47.0733802,6.12085 L47.0733802,6.0724 C47.0733802,3.28046875 44.8629266,1.82293125 41.6195507,1.82293125 L36.527244,1.82293125 L36.527244,10.4470312 L41.4666782,10.4470312 Z" id="Fill-8"></path>
                </g>
                <polygon id="Fill-11" points="130.91689 10.09375 143.997918 10.09375 143.997918 11.3136723 132.283628 11.3136723 132.283628 18.3123889 142.816787 18.3123889 142.816787 19.5323111 132.283628 19.5323111 132.283628 26.6822409 144.128686 26.6822409 144.128686 27.90625 130.91689 27.90625"></polygon>
                <path d="M147.131367,18.7541627 L147.131367,18.703125 C147.131367,13.670804 150.966603,9.5 156.197415,9.5 C159.433655,9.5 161.37831,10.669785 163.243932,12.3479058 L162.285123,13.3135398 C160.70444,11.8130303 158.890815,10.6942831 156.172457,10.6942831 C151.81934,10.6942831 148.529024,14.1791399 148.529024,18.6520873 L148.529024,18.703125 C148.529024,23.2046535 151.871336,26.7099254 156.197415,26.7099254 C158.813861,26.7099254 160.600448,25.7197933 162.439032,23.9416385 L163.345845,24.8031555 C161.428227,26.6609292 159.3567,27.90625 156.145419,27.90625 C150.966603,27.90625 147.131367,23.8640611 147.131367,18.7541627" id="Fill-12"></path>
                <polygon id="Fill-14" points="171.989726 11.3136723 165.747989 11.3136723 165.747989 10.09375 179.560322 10.09375 179.560322 11.3136723 173.320639 11.3136723 173.320639 27.90625 171.989726 27.90625"></polygon>
                <polygon id="Fill-15" points="183.764075 27.90625 184.929716 27.90625 184.929716 10.09375 183.764075 10.09375"></polygon>
                <polygon id="Fill-16" points="189.168901 10.09375 190.639501 10.09375 197.600884 26.3660714 204.588782 10.09375 205.983914 10.09375 198.159752 27.90625 196.993063 27.90625"></polygon>
                <polygon id="Fill-17" points="214.353089 10.09375 205.983914 27.90625 207.370877 27.90625 214.967227 11.5343326 222.540907 27.90625 224 27.90625 215.634947 10.09375"></polygon>
                <path d="M16.8129344,0 L0.0166320607,9.48930696 L0,28.4882886 L16.8129344,38 L33.6300268,28.4882886 L33.6300268,9.50356435 L16.8129344,0 Z M1.49896447,27.6409927 L1.51351753,10.3366029 L16.8129344,1.69459184 L32.1310623,10.3488235 L32.1310623,27.6409927 L16.8129344,36.3054082 L1.49896447,27.6409927 Z" id="Fill-18"></path>
                <polygon id="Fill-19" points="17.4568183 10.09375 16.1752788 10.09375 7.80697051 27.90625 9.19409732 27.90625 16.788099 11.5305707 24.3613973 27.90625 25.8230563 27.90625"></polygon>
            </g>
        </g>
    </g>
</svg>