<?xml version="1.0" encoding="UTF-8"?>
<svg width="300px" height="32px" viewBox="0 0 300 32" version="1.1" xmlns="http://www.w3.org/2000/svg" xmlns:xlink="http://www.w3.org/1999/xlink">
    <!-- Generator: Sketch 52.4 (67378) - http://www.bohemiancoding.com/sketch -->
    <title>mainLogo</title>
    <desc>Created with Sketch.</desc>
    <g id="Symbols" stroke="none" stroke-width="1" fill="none" fill-rule="evenodd">
        <g id="header/about" transform="translate(-570.000000, -46.000000)" fill="#05171D">
            <g id="mainLogo" transform="translate(570.000000, 46.000000)">
                <path d="M0,1 L10.8711139,1 C17.4632089,1 22,4.38304463 22,10.1717334 L22,10.2577722 C22,16.5558105 16.5661615,19.8149593 10.3177628,19.8149593 L2.22371504,19.8149593 L2.22371504,31 L0,31 L0,1 Z M10.4449305,17.7569118 C16.0093735,17.7569118 19.776285,14.8419181 19.776285,10.381668 L19.776285,10.2990708 C19.776285,5.53940576 16.0987346,3.05460594 10.6992657,3.05460594 L2.22371504,3.05460594 L2.22371504,17.7569118 L10.4449305,17.7569118 Z" id="Fill-1"></path>
                <polygon id="Fill-3" points="29 1 50.7822478 1 50.7822478 3.05460594 31.2758621 3.05460594 31.2758621 14.8419181 48.8119413 14.8419181 48.8119413 16.896524 31.2758621 16.896524 31.2758621 28.938511 51 28.938511 51 31 29 31"></polygon>
                <g id="Group-10" transform="translate(57.000000, 0.000000)">
                    <path d="M0.211584,1.0404 L12.805424,1.0404 C16.489664,1.0404 19.444624,2.1828 21.243744,3.961 C22.657584,5.355 23.514144,7.3474 23.514144,9.4656 L23.514144,9.5506 C23.514144,14.5044 19.788624,17.34 14.731824,18.0166 L24.628704,30.6782 L21.801024,30.6782 L12.251584,18.4008 L2.440704,18.4008 L2.440704,30.6782 L0.211584,30.6782 L0.211584,1.0404 Z M12.547424,16.4084 C17.559504,16.4084 21.291904,13.9128 21.291904,9.6356 L21.291904,9.5506 C21.291904,5.5692 18.116784,3.0702 12.678144,3.0702 L2.440704,3.0702 L2.440704,16.4084 L12.547424,16.4084 Z" id="Fill-4"></path>
                    <path d="M29.254128,26.35646 L30.712688,24.70746 C34.008208,27.71306 37.049168,29.11386 41.459248,29.11386 C45.958768,29.11386 49.044448,26.61146 49.044448,23.22846 L49.044448,23.14346 C49.044448,20.00866 47.376048,18.18626 40.561408,16.83306 C33.364928,15.39146 30.454688,12.97746 30.454688,8.49286 L30.454688,8.40446 C30.454688,4.00146 34.520768,0.61166 40.090128,0.61166 C44.462368,0.61166 47.331328,1.80506 50.375728,4.21566 L48.958448,5.95306 C46.134208,3.53906 43.303088,2.60746 40.007568,2.60746 C35.594048,2.60746 32.680368,5.10306 32.680368,8.19366 L32.680368,8.28206 C32.680368,11.41346 34.307488,13.32086 41.417968,14.75906 C48.359888,16.15646 51.270128,18.61126 51.270128,22.92926 L51.270128,23.01426 C51.270128,27.79466 47.118048,31.09946 41.335408,31.09946 C36.536608,31.09946 32.852368,29.53206 29.254128,26.35646" id="Fill-6"></path>
                    <path d="M58.595264,1.0404 L69.472544,1.0404 C76.073904,1.0404 80.614704,4.3826 80.614704,10.1014 L80.614704,10.1864 C80.614704,16.4084 75.172624,19.6282 68.918704,19.6282 L60.824384,19.6282 L60.824384,30.6782 L58.595264,30.6782 L58.595264,1.0404 Z M69.049424,17.595 C74.618784,17.595 78.385584,14.7152 78.385584,10.3088 L78.385584,10.2272 C78.385584,5.525 74.704784,3.0702 69.303984,3.0702 L60.824384,3.0702 L60.824384,17.595 L69.049424,17.595 Z" id="Fill-8"></path>
                </g>
                <polygon id="Fill-11" points="145 1 166.782248 1 166.782248 3.05460594 147.275862 3.05460594 147.275862 14.8419181 164.815453 14.8419181 164.815453 16.896524 147.275862 16.896524 147.275862 28.938511 167 28.938511 167 31 145 31"></polygon>
                <path d="M172,15.5859583 L172,15.5 C172,7.02451198 178.386352,0 187.096588,0 C192.485505,0 195.723704,1.97016415 198.830298,4.79647294 L197.23371,6.4228039 C194.601591,3.89562999 191.58158,2.01142413 187.055028,2.01142413 C179.806311,2.01142413 174.327347,7.88065661 174.327347,15.4140417 L174.327347,15.5 C174.327347,23.0815217 179.892894,28.9851375 187.096588,28.9851375 C191.453438,28.9851375 194.428425,27.3175466 197.489995,24.3227595 L199,25.7737356 C195.806824,28.9026176 192.357363,31 187.010005,31 C178.386352,31 172,24.1921029 172,15.5859583" id="Fill-12"></path>
                <polygon id="Fill-14" points="213.393606 3.05460594 203 3.05460594 203 1 226 1 226 3.05460594 215.609814 3.05460594 215.609814 31 213.393606 31"></polygon>
                <polygon id="Fill-15" points="233 31 234.941 31 234.941 1 233 1"></polygon>
                <polygon id="Fill-16" points="242 1 244.448811 1 256.040757 28.406015 267.676856 1 270 1 256.971373 31 255.028627 31"></polygon>
                <polygon id="Fill-17" points="283.93617 1 270 31 272.30954 31 284.958819 3.42624445 297.57035 31 300 31 286.070693 1"></polygon>
            </g>
        </g>
    </g>
</svg>