<?xml version="1.0" encoding="UTF-8"?>
<svg width="210px" height="22px" viewBox="0 0 210 22" version="1.1" xmlns="http://www.w3.org/2000/svg" xmlns:xlink="http://www.w3.org/1999/xlink">
    <!-- Generator: Sketch 52.5 (67469) - http://www.bohemiancoding.com/sketch -->
    <title>mainLogo</title>
    <desc>Created with Sketch.</desc>
    <g id="Page-1" stroke="none" stroke-width="1" fill="none" fill-rule="evenodd">
        <g id="mainLogo" fill="#05171D">
            <path d="M0,0.6875 L7.60977973,0.6875 C12.2242462,0.6875 15.4,3.01334318 15.4,6.99306671 L15.4,7.05221839 C15.4,11.3821197 11.596313,13.6227845 7.22243396,13.6227845 L1.55660053,13.6227845 L1.55660053,21.3125 L0,21.3125 L0,0.6875 Z M7.31145135,12.2078769 C11.2065614,12.2078769 13.8433995,10.2038187 13.8433995,7.13739675 L13.8433995,7.08061117 C13.8433995,3.80834146 11.2691142,2.10004158 7.48948599,2.10004158 L1.55660053,2.10004158 L1.55660053,12.2078769 L7.31145135,12.2078769 Z" id="Fill-1" fill-rule="nonzero"></path>
            <polygon id="Fill-3" points="20.3 0.6875 35.5475735 0.6875 35.5475735 2.10004158 21.8931035 2.10004158 21.8931035 10.2038187 34.1683589 10.2038187 34.1683589 11.6163602 21.8931035 11.6163602 21.8931035 19.8952263 35.7 19.8952263 35.7 21.3125 20.3 21.3125"></polygon>
            <g id="Group-10" transform="translate(39.900000, 0.000000)">
                <path d="M0.1481088,0.715275 L8.9637968,0.715275 C11.5427648,0.715275 13.6112368,1.500675 14.8706208,2.7231875 C15.8603088,3.6815625 16.4599008,5.0513375 16.4599008,6.5076 L16.4599008,6.5660375 C16.4599008,9.971775 13.8520368,11.92125 10.3122768,12.3864125 L17.2400928,21.0912625 L15.2607168,21.0912625 L8.5761088,12.65055 L1.7084928,12.65055 L1.7084928,21.0912625 L0.1481088,21.0912625 L0.1481088,0.715275 Z M8.7831968,11.280775 C12.2916528,11.280775 14.9043328,9.56505 14.9043328,6.624475 L14.9043328,6.5660375 C14.9043328,3.828825 12.6817488,2.1107625 8.8747008,2.1107625 L1.7084928,2.1107625 L1.7084928,11.280775 L8.7831968,11.280775 Z" id="Fill-4" fill-rule="nonzero"></path>
                <path d="M20.4778896,18.1200663 L21.4988816,16.9863788 C23.8057456,19.0527287 25.9344176,20.0157787 29.0214736,20.0157787 C32.1711376,20.0157787 34.3311136,18.2953788 34.3311136,15.9695663 L34.3311136,15.9111288 C34.3311136,13.7559537 33.1632336,12.5030538 28.3929856,11.5727287 C23.3554496,10.5816288 21.3182816,8.92200375 21.3182816,5.83884125 L21.3182816,5.77806625 C21.3182816,2.75100375 24.1645376,0.42051625 28.0630896,0.42051625 C31.1236576,0.42051625 33.1319296,1.24097875 35.2630096,2.89826625 L34.2709136,4.09272875 C32.2939456,2.43310375 30.3121616,1.79262875 28.0052976,1.79262875 C24.9158336,1.79262875 22.8762576,3.50835375 22.8762576,5.63314125 L22.8762576,5.69391625 C22.8762576,7.84675375 24.0152416,9.15809125 28.9925776,10.1468538 C33.8519216,11.1075662 35.8890896,12.7952413 35.8890896,15.7638663 L35.8890896,15.8223038 C35.8890896,19.1088288 32.9826336,21.3808788 28.9347856,21.3808788 C25.5756256,21.3808788 22.9966576,20.3032913 20.4778896,18.1200663" id="Fill-6"></path>
                <path d="M41.0166848,0.715275 L48.6307808,0.715275 C53.2517328,0.715275 56.4302928,3.0130375 56.4302928,6.9447125 L56.4302928,7.00315 C56.4302928,11.280775 52.6208368,13.4943875 48.2430928,13.4943875 L42.5770688,13.4943875 L42.5770688,21.0912625 L41.0166848,21.0912625 L41.0166848,0.715275 Z M48.3345968,12.0965625 C52.2331488,12.0965625 54.8699088,10.1167 54.8699088,7.0873 L54.8699088,7.0312 C54.8699088,3.7984375 52.2933488,2.1107625 48.5127888,2.1107625 L42.5770688,2.1107625 L42.5770688,12.0965625 L48.3345968,12.0965625 Z" id="Fill-8" fill-rule="nonzero"></path>
            </g>
            <polygon id="Fill-11" points="101.5 0.6875 116.747574 0.6875 116.747574 2.10004158 103.093103 2.10004158 103.093103 10.2038187 115.370817 10.2038187 115.370817 11.6163602 103.093103 11.6163602 103.093103 19.8952263 116.9 19.8952263 116.9 21.3125 101.5 21.3125"></polygon>
            <path d="M120.4,10.7153463 L120.4,10.65625 C120.4,4.82935199 124.870446,0 130.967612,0 C134.739853,0 137.006593,1.35448785 139.181209,3.29757515 L138.063597,4.41567768 C136.221114,2.67824562 134.107106,1.38285409 130.93852,1.38285409 C125.864418,1.38285409 122.029143,5.41795142 122.029143,10.5971537 L122.029143,10.65625 C122.029143,15.8685462 125.925026,19.927282 130.967612,19.927282 C134.017407,19.927282 136.099897,18.7808133 138.242997,16.7218972 L139.3,17.7194432 C137.064777,19.8705496 134.650154,21.3125 130.907004,21.3125 C124.870446,21.3125 120.4,16.6320707 120.4,10.7153463" id="Fill-12"></path>
            <polygon id="Fill-14" points="149.375524 2.10004158 142.1 2.10004158 142.1 0.6875 158.2 0.6875 158.2 2.10004158 150.92687 2.10004158 150.92687 21.3125 149.375524 21.3125"></polygon>
            <polygon id="Fill-15" points="163.1 21.3125 164.4587 21.3125 164.4587 0.6875 163.1 0.6875"></polygon>
            <polygon id="Fill-16" points="169.4 0.6875 171.114168 0.6875 179.22853 19.5291353 187.373799 0.6875 189 0.6875 179.879961 21.3125 178.520039 21.3125"></polygon>
            <polygon id="Fill-17" points="198.755319 0.6875 189 21.3125 190.616678 21.3125 199.471173 2.35554306 208.299245 21.3125 210 21.3125 200.249485 0.6875"></polygon>
        </g>
    </g>
</svg>